<svg id="Capa_1" enable-background="new 0 0 497 497" height="512" viewBox="0 0 497 497" width="512" xmlns="http://www.w3.org/2000/svg"><g><path d="m17.017 145.022h462.967v284.461h-462.967z" fill="#ffb2c1"/><path d="m50.012 336.749c0-73.345 26.995-140.382 71.587-191.727h-104.583v284.46h48.012c-9.733-29.141-15.016-60.319-15.016-92.733z" fill="#ff9db0"/><path d="m0 160.866v18.175c0 27.449 22.251 49.7 49.7 49.7 27.448 0 49.7-22.251 49.7-49.7v-18.175l-49.7-15.844z" fill="#ff748f"/><path d="m99.4 160.866v18.175c0 27.449 22.251 49.7 49.7 49.7 27.449 0 49.7-22.251 49.7-49.7v-18.175l-49.7-15.844z" fill="#fbe29f"/><path d="m198.8 160.866v18.175c0 27.449 22.251 49.7 49.7 49.7 27.448 0 49.7-22.251 49.7-49.7v-18.175l-49.7-15.844z" fill="#ff748f"/><path d="m298.2 160.866v18.175c0 27.449 22.251 49.7 49.7 49.7 27.449 0 49.7-22.251 49.7-49.7v-18.175l-49.7-15.844z" fill="#fbe29f"/><path d="m397.6 160.866v18.175c0 27.449 22.251 49.7 49.7 49.7 27.449 0 49.7-22.251 49.7-49.7v-18.175l-49.7-15.844z" fill="#ff748f"/><path d="m35.085 149.681-35.085 11.185v18.175c0 27.449 22.251 49.7 49.7 49.7 8.318 0 16.153-2.054 23.042-5.667-17.737-20.93-30.82-45.924-37.657-73.393z" fill="#fd5f7e"/><path d="m446.234 3.607h-395.468c-28.037 0-50.766 22.729-50.766 50.767v106.492h497v-106.492c0-28.038-22.729-50.767-50.766-50.767z" fill="#bc9bdd"/><path d="m175.579 270.666h-52.957c-16.625 0-30.103 13.477-30.103 30.103v124.069h113.163v-124.069c-.001-16.626-13.478-30.103-30.103-30.103z" fill="#ff748f"/><path d="m410.728 270.666h-130.682c-12.407 0-22.464 10.058-22.464 22.464v45.308c0 12.407 10.058 22.464 22.464 22.464h130.681c12.407 0 22.464-10.058 22.464-22.464v-45.308c.001-12.407-10.057-22.464-22.463-22.464z" fill="#fbe29f"/><g fill="#ffefe0"><path d="m214.4 88.147v40.443c0 4.142 3.357 7.5 7.5 7.5s7.5-3.358 7.5-7.5v-92.706c0-4.143-3.357-7.5-7.5-7.5s-7.5 3.357-7.5 7.5v37.263h-49.154v-37.263c0-4.143-3.357-7.5-7.5-7.5s-7.5 3.357-7.5 7.5v92.706c0 4.142 3.357 7.5 7.5 7.5s7.5-3.358 7.5-7.5v-40.443z"/><path d="m110.464 75.931c-12.06-4.448-23.235-9.308-25.908-10.483-3.241-2.336-4.819-6.097-4.235-10.166.722-5.023 4.55-9.047 10.241-10.761 15.306-4.609 29.05 6.46 29.288 6.655 3.171 2.642 7.884 2.227 10.542-.936 2.665-3.171 2.256-7.902-.915-10.567-.806-.678-20.009-16.513-43.241-9.514-11.258 3.391-19.214 12.201-20.763 22.992-1.439 10.027 2.902 19.668 11.33 25.163.331.216.679.405 1.04.566.531.237 13.178 5.867 27.43 11.124 10.632 3.922 16.014 10.182 14.765 17.176-1.204 6.743-8.699 13.91-20.219 13.91-10.349 0-20.349-4.216-26.749-11.279-2.783-3.07-7.525-3.301-10.594-.521-3.069 2.782-3.303 7.524-.521 10.594 9.197 10.147 23.352 16.206 37.864 16.206 17.271 0 32.312-11.295 34.985-26.273 3.076-17.23-10.557-28.802-24.34-33.886z"/><path d="m402.814 28.384h-25.814c-4.094 0-7.5 3.33-7.5 7.5v92.706c0 4.142 3.357 7.5 7.5 7.5s7.5-3.358 7.5-7.5v-32.81c5.981-.033 14.129-.073 18.313-.073 18.844 0 34.174-15.101 34.174-33.662s-15.33-33.661-34.173-33.661zm0 52.323c-4.163 0-12.197.04-18.177.072-.104-19.733-.043-12.986-.114-37.396h18.291c10.394 0 19.174 8.546 19.174 18.662s-8.781 18.662-19.174 18.662z"/><path d="m299.033 28.384c-29.694 0-53.853 24.158-53.853 53.853s24.158 53.853 53.853 53.853 53.854-24.158 53.854-53.853-24.158-53.853-53.854-53.853zm0 92.706c-21.424 0-38.853-17.429-38.853-38.853s17.429-38.853 38.853-38.853 38.854 17.429 38.854 38.853-17.43 38.853-38.854 38.853z"/></g><path d="m126.243 328.57c0-20.964 5.307-40.689 14.65-57.904h-18.271c-16.625 0-30.103 13.478-30.103 30.103v124.068h81.056c-28.787-22.231-47.332-57.081-47.332-96.267z" fill="#fd5f7e"/><path d="m465.638 409.483h-434.276c-17.321 0-31.362 14.041-31.362 31.362v27.713c0 13.716 11.119 24.835 24.835 24.835h447.33c13.716 0 24.835-11.119 24.835-24.835v-27.713c0-17.321-14.041-31.362-31.362-31.362z" fill="#fbe29f"/><g><path d="m29.7 105.635c0-37.819 11.554-72.938 31.318-102.027h-10.252c-28.037 0-50.766 22.728-50.766 50.766v106.492h38.254c-5.549-17.419-8.554-35.973-8.554-55.231z" fill="#b08bd7"/></g><path d="m59.13 409.483h-27.768c-17.321 0-31.362 14.041-31.362 31.362v27.713c0 13.716 11.119 24.835 24.835 24.835h70.62c-16.234-25.556-28.619-53.795-36.325-83.91z" fill="#f9d888"/><path d="m299.034 284.277c0-4.602.264-9.142.76-13.612h-19.747c-12.407 0-22.464 10.058-22.464 22.464v45.308c0 12.407 10.058 22.464 22.464 22.464h46.052c-16.924-20.945-27.065-47.598-27.065-76.624z" fill="#f9d888"/></g></svg>